<?xml version="1.0" encoding="UTF-8" standalone="no"?>
<!-- Created with Inkscape (http://www.inkscape.org/) -->

<svg
   xmlns:dc="http://purl.org/dc/elements/1.1/"
   xmlns:cc="http://creativecommons.org/ns#"
   xmlns:rdf="http://www.w3.org/1999/02/22-rdf-syntax-ns#"
   xmlns:svg="http://www.w3.org/2000/svg"
   xmlns="http://www.w3.org/2000/svg"
   xmlns:sodipodi="http://sodipodi.sourceforge.net/DTD/sodipodi-0.dtd"
   xmlns:inkscape="http://www.inkscape.org/namespaces/inkscape"
   width="48"
   height="48"
   viewBox="0 0 12.7 12.7"
   version="1.1"
   id="svg8"
   inkscape:version="0.92.3 (2405546, 2018-03-11)"
   sodipodi:docname="dirtools.svg">
  <defs
     id="defs2" />
  <sodipodi:namedview
     id="base"
     pagecolor="#ffffff"
     bordercolor="#666666"
     borderopacity="1.0"
     inkscape:pageopacity="0.0"
     inkscape:pageshadow="2"
     inkscape:zoom="11.976621"
     inkscape:cx="25.918099"
     inkscape:cy="22.054566"
     inkscape:document-units="mm"
     inkscape:current-layer="layer1"
     showgrid="false"
     units="px"
     inkscape:window-width="1680"
     inkscape:window-height="1001"
     inkscape:window-x="0"
     inkscape:window-y="0"
     inkscape:window-maximized="1" />
  <metadata
     id="metadata5">
    <rdf:RDF>
      <cc:Work
         rdf:about="">
        <dc:format>image/svg+xml</dc:format>
        <dc:type
           rdf:resource="http://purl.org/dc/dcmitype/StillImage" />
        <dc:title></dc:title>
      </cc:Work>
    </rdf:RDF>
  </metadata>
  <g
     inkscape:label="Layer 1"
     inkscape:groupmode="layer"
     id="layer1"
     transform="translate(0,-284.3)">
    <path
       sodipodi:nodetypes="ccccccc"
       inkscape:connector-curvature="0"
       id="path832"
       d="m 0.9847389,284.82678 v 8.1386 H 11.715261 v -6.81271 H 6.9211241 l -1.5173845,-1.38349 z"
       style="fill:none;fill-rule:evenodd;stroke:#000000;stroke-width:0.36549014;stroke-linecap:butt;stroke-linejoin:miter;stroke-miterlimit:4;stroke-dasharray:none;stroke-opacity:1" />
    <path
       style="fill:#ffffff;fill-opacity:1;fill-rule:evenodd;stroke:#000000;stroke-width:0.36549014;stroke-linecap:butt;stroke-linejoin:miter;stroke-miterlimit:4;stroke-dasharray:none;stroke-opacity:1"
       d="m 0.9847389,286.97992 v 6.79288 H 11.715261 v -6.81271 z"
       id="path815"
       inkscape:connector-curvature="0"
       sodipodi:nodetypes="ccccc" />
    <g
       id="g849"
       transform="matrix(1.1352604,0,0,1.1352604,-0.56111279,-40.034277)">
      <path
         inkscape:connector-curvature="0"
         id="path821"
         d="m 2.8605392,289.01753 1.7259118,1.29351 c 0.017566,0.0131 0.021098,0.0378 0.00795,0.0553 l -0.8926898,1.19112 c -0.013163,0.0176 -0.038145,0.0215 -0.055708,0.009 l -1.719067,-1.28838 c -0.1383361,0.51917 -0.074117,1.07153 0.1796459,1.54512 0.5539701,1.02968 1.8377386,1.41539 2.8674833,0.86152 l 3.212e-4,-4.2e-4 c 0.036454,-0.0197 0.070272,-0.0421 0.1050916,-0.0636 l 4.6330968,3.47232 c 0.017567,0.0132 0.042233,0.01 0.055376,-0.009 l 0.901029,-1.20226 c 0.01316,-0.0175 0.0096,-0.0422 -0.0079,-0.0553 L 6.0189999,291.3474 c 0.1286194,-0.49795 0.079452,-1.04337 -0.1834921,-1.53195 -0.5541353,-1.02971 -1.838096,-1.41524 -2.8678039,-0.8611 -0.036314,0.0199 -0.072036,0.0408 -0.1071245,0.0627 z"
         style="fill:#ffffff;fill-opacity:1;stroke:#000000;stroke-width:0.32612169;stroke-linecap:round;stroke-linejoin:round;stroke-miterlimit:4;stroke-dasharray:none;stroke-opacity:1" />
      <path
         inkscape:connector-curvature="0"
         id="rect841"
         d="m 9.883825,289.31306 c -0.02541,-0.0312 -0.06554,-0.0401 -0.09029,-0.0199 l -0.727278,0.59173 c -0.02475,0.0202 -0.02421,0.0613 0.0013,0.0925 l 0.04295,0.0528 -3.1338045,2.54974 c -0.015027,0.0122 -0.014718,0.0368 6.712e-4,0.0557 l 0.2170659,0.26679 c 0.015389,0.0189 0.039385,0.0242 0.054412,0.012 l 3.1338044,-2.54975 0.04295,0.0528 c 0.02541,0.0312 0.06554,0.0401 0.09029,0.0199 l 0.727277,-0.59174 c 0.02475,-0.0202 0.02421,-0.0612 -0.0011,-0.0924 z"
         style="fill:#ffffff;fill-opacity:1;stroke:#000000;stroke-width:0.30000001;stroke-linecap:round;stroke-linejoin:round;stroke-miterlimit:4;stroke-dasharray:none;stroke-opacity:1" />
      <path
         inkscape:connector-curvature="0"
         id="rect834"
         d="m 5.658203,291.8815 c -0.010301,-0.0127 -0.02647,-0.0163 -0.036547,-0.008 l -0.644122,0.52407 c -0.00999,0.008 -0.00981,0.0247 4.84e-4,0.0374 l 0.1607012,0.19751 -0.233372,0.18987 -0.1272317,-0.15637 c -0.00974,-0.012 -0.02552,-0.0152 -0.034623,-0.008 l -2.8528881,2.32118 c -0.00955,0.008 -0.00924,0.0235 5.056e-4,0.0354 l 1.1825904,1.45348 c 0.00974,0.012 0.02552,0.0152 0.034624,0.008 l 2.8528881,-2.32119 c 0.00955,-0.008 0.00924,-0.0235 -5.063e-4,-0.0354 l -0.1269944,-0.15609 0.2333721,-0.18988 0.160464,0.19722 c 0.010301,0.0127 0.026707,0.0165 0.036784,0.008 l 0.6441221,-0.52408 c 0.010073,-0.008 0.00957,-0.0251 -7.21e-4,-0.0377 z"
         style="fill:#ffffff;fill-opacity:1;stroke:#000000;stroke-width:0.30000001;stroke-linecap:round;stroke-linejoin:round;stroke-miterlimit:4;stroke-dasharray:none;stroke-opacity:1" />
    </g>
  </g>
</svg>
