<?xml version="1.0" encoding="UTF-8" standalone="no"?>
<!-- Created with Inkscape (http://www.inkscape.org/) -->

<svg
   xmlns:dc="http://purl.org/dc/elements/1.1/"
   xmlns:cc="http://creativecommons.org/ns#"
   xmlns:rdf="http://www.w3.org/1999/02/22-rdf-syntax-ns#"
   xmlns:svg="http://www.w3.org/2000/svg"
   xmlns="http://www.w3.org/2000/svg"
   xmlns:sodipodi="http://sodipodi.sourceforge.net/DTD/sodipodi-0.dtd"
   xmlns:inkscape="http://www.inkscape.org/namespaces/inkscape"
   width="48"
   height="48"
   viewBox="0 0 12.7 12.7"
   version="1.1"
   id="svg8"
   inkscape:version="0.92.3 (2405546, 2018-03-11)"
   sodipodi:docname="icon_gitlab.svg">
  <defs
     id="defs2" />
  <sodipodi:namedview
     id="base"
     pagecolor="#ffffff"
     bordercolor="#666666"
     borderopacity="1.0"
     inkscape:pageopacity="0.0"
     inkscape:pageshadow="2"
     inkscape:zoom="15.839192"
     inkscape:cx="19.0625"
     inkscape:cy="23.169642"
     inkscape:document-units="mm"
     inkscape:current-layer="layer1"
     showgrid="false"
     units="px"
     inkscape:window-width="2560"
     inkscape:window-height="1391"
     inkscape:window-x="1680"
     inkscape:window-y="0"
     inkscape:window-maximized="1" />
  <metadata
     id="metadata5">
    <rdf:RDF>
      <cc:Work
         rdf:about="">
        <dc:format>image/svg+xml</dc:format>
        <dc:type
           rdf:resource="http://purl.org/dc/dcmitype/StillImage" />
        <dc:title></dc:title>
      </cc:Work>
    </rdf:RDF>
  </metadata>
  <g
     inkscape:label="Layer 1"
     inkscape:groupmode="layer"
     id="layer1"
     transform="translate(0,-284.3)">
    <g
       id="g867"
       transform="matrix(0.73462317,0,0,0.73462317,1.6851431,77.290555)">
      <path
         sodipodi:nodetypes="cscssccsscc"
         inkscape:connector-curvature="0"
         id="path852"
         d="m 1.9489397,289.22787 c 1.3347283,-0.70871 3.9195141,-0.37214 4.3939731,-0.98038 0.474459,-0.60824 1.5237166,-1.19299 1.842634,-1.65364 0.3189174,-0.46066 1.1575521,0.28348 1.500093,0.9095 0.3425412,0.62602 0.1299293,0.79139 0.7559522,1.12212 0.626023,0.33073 0.47247,0.63783 0.649647,0.64964 0.177176,0.0118 0.05906,1.98438 0.05906,1.98438 -0.551575,0.0208 -0.488374,-0.56671 -1.6398925,-0.12993 -1.2257139,0.46492 -3.3021052,-0.34196 -4.3367897,-0.0762 -1.465476,0.37644 -3.3900397,0.21791 -3.3900397,0.21791 z"
         style="fill:none;fill-rule:evenodd;stroke:#000000;stroke-width:0.30000001;stroke-linecap:butt;stroke-linejoin:miter;stroke-miterlimit:4;stroke-dasharray:none;stroke-opacity:1" />
      <path
         style="fill:#ffffff;fill-rule:evenodd;stroke:#000000;stroke-width:0.30000001;stroke-linecap:butt;stroke-linejoin:miter;stroke-miterlimit:4;stroke-dasharray:none;stroke-opacity:1"
         d="m 10.77945,291.93397 c -1.3347286,-0.70871 -4.0865579,0.29603 -4.5610169,-0.31221 -0.474459,-0.60824 -0.5214558,-1.6273 -0.8403732,-2.08795 -0.3189174,-0.46066 -1.4248217,0.14985 -1.7673626,0.77587 -0.3425412,0.62602 -0.4306075,1.02525 -1.0566304,1.35598 -0.6260234,0.33073 -0.7397399,0.30374 -0.9169169,0.31555 -0.177176,0.0118 -0.05906,1.98438 -0.05906,1.98438 0.5515754,0.0208 0.488374,-0.56671 1.6398929,-0.12993 1.2257139,0.46492 3.3021052,-0.34196 4.3367897,-0.0762 1.465476,0.37644 3.3900404,0.21791 3.3900404,0.21791 z"
         id="path854"
         inkscape:connector-curvature="0"
         sodipodi:nodetypes="cscssccsscc" />
      <path
         style="fill:#ffffff;fill-opacity:1;stroke:#000000;stroke-width:0.30000001;stroke-linecap:round;stroke-linejoin:round;stroke-miterlimit:4;stroke-dasharray:none;stroke-opacity:1"
         id="path834"
         sodipodi:type="arc"
         sodipodi:cx="8.3889999"
         sodipodi:cy="291.92041"
         sodipodi:rx="1.0037186"
         sodipodi:ry="1.0037186"
         sodipodi:start="2.0049819"
         sodipodi:end="2.0046503"
         sodipodi:open="true"
         d="m 7.9667639,292.831 a 1.0037186,1.0037186 0 0 1 -0.4883855,-1.33275 1.0037186,1.0037186 0 0 1 1.3327066,-0.4885 1.0037186,1.0037186 0 0 1 0.4886064,1.33267 1.0037186,1.0037186 0 0 1 -1.3326255,0.48872" />
      <path
         style="fill:#ffffff;fill-rule:evenodd;stroke:#000000;stroke-width:0.30000001;stroke-linecap:butt;stroke-linejoin:miter;stroke-miterlimit:4;stroke-dasharray:none;stroke-opacity:1"
         d="m 4.2999783,287.73874 c -1.0216852,-0.20075 -0.5669927,-0.20225 -1.1053224,-0.47134 -0.5383394,-0.26909 -0.7574898,-0.0912 -0.9401116,-0.49316 -0.1826219,-0.40199 -0.6228817,-0.462 -0.6228817,-0.462 l -0.025292,0.79024 c 0.4787762,0.14015 0.5305894,0.42835 0.9513777,0.38262 0.2511011,-0.0273 0.4064805,0.36928 0.6027179,0.53596 0.2779295,0.23606 0.9711064,0.67089 1.4714343,0.82972 L 4.832997,287.9936 Z"
         id="path848"
         inkscape:connector-curvature="0"
         sodipodi:nodetypes="ccsccssccc" />
      <path
         sodipodi:nodetypes="ccsccssccc"
         inkscape:connector-curvature="0"
         id="path846"
         d="m 4.3349145,293.64546 c -0.1063059,-2.9175 0.1889879,-1.67727 0.578776,-3.3191 0.3897879,-1.64184 -0.2362353,-2.12612 0.7441406,-2.88207 0.9803757,-0.75595 0.8622581,-1.99619 0.8622581,-1.99619 l -2.173363,0.43704 c -0.075948,1.39668 -0.8294881,1.7227 -0.4351722,2.84204 0.2353071,0.66796 -0.7477224,1.34609 -1.07704,1.98851 -0.4663993,0.90984 -1.2094554,3.0805 -1.3226092,4.54798 h 2.468657 z"
         style="fill:#ffffff;fill-rule:evenodd;stroke:#000000;stroke-width:0.30000001;stroke-linecap:butt;stroke-linejoin:miter;stroke-miterlimit:4;stroke-dasharray:none;stroke-opacity:1" />
      <path
         d="m 6.7070762,293.93726 a 1.2397987,1.2313901 0 0 1 -0.6032565,-1.63505 1.2397987,1.2313901 0 0 1 1.6461663,-0.5993 1.2397987,1.2313901 0 0 1 0.6035294,1.63495 1.2397987,1.2313901 0 0 1 -1.6460662,0.59957"
         sodipodi:open="true"
         sodipodi:end="2.0046503"
         sodipodi:start="2.0049819"
         sodipodi:ry="1.2313901"
         sodipodi:rx="1.2397987"
         sodipodi:cy="292.82013"
         sodipodi:cx="7.2286243"
         sodipodi:type="arc"
         id="path832"
         style="fill:#ffffff;fill-opacity:1;stroke:#000000;stroke-width:0.30000001;stroke-linecap:round;stroke-linejoin:round;stroke-miterlimit:4;stroke-dasharray:none;stroke-opacity:1" />
      <path
         d="m 8.3066052,294.27 a 1.2552445,1.2552445 0 0 1 -0.610772,-1.66673 1.2552445,1.2552445 0 0 1 1.6666748,-0.61091 1.2552445,1.2552445 0 0 1 0.6110483,1.66663 1.2552445,1.2552445 0 0 1 -1.6665735,0.61118"
         sodipodi:open="true"
         sodipodi:end="2.0046503"
         sodipodi:start="2.0049819"
         sodipodi:ry="1.2552445"
         sodipodi:rx="1.2552445"
         sodipodi:cy="293.13123"
         sodipodi:cx="8.834651"
         sodipodi:type="arc"
         id="path840"
         style="fill:#ffffff;fill-opacity:1;stroke:#000000;stroke-width:0.30000001;stroke-linecap:round;stroke-linejoin:round;stroke-miterlimit:4;stroke-dasharray:none;stroke-opacity:1" />
      <path
         style="fill:#ffffff;fill-opacity:1;stroke:#000000;stroke-width:0.30000001;stroke-linecap:round;stroke-linejoin:round;stroke-miterlimit:4;stroke-dasharray:none;stroke-opacity:1"
         id="path838"
         sodipodi:type="arc"
         sodipodi:cx="9.8352642"
         sodipodi:cy="293.94687"
         sodipodi:rx="1.2552445"
         sodipodi:ry="1.2552445"
         sodipodi:start="2.0049819"
         sodipodi:end="2.0046503"
         sodipodi:open="true"
         d="m 9.3072184,295.08564 a 1.2552445,1.2552445 0 0 1 -0.610772,-1.66672 1.2552445,1.2552445 0 0 1 1.6666746,-0.61091 1.2552445,1.2552445 0 0 1 0.611049,1.66662 1.2552445,1.2552445 0 0 1 -1.666574,0.61119" />
      <path
         style="fill:#ffffff;fill-opacity:1;stroke:#000000;stroke-width:0.30000001;stroke-linecap:round;stroke-linejoin:round;stroke-miterlimit:4;stroke-dasharray:none;stroke-opacity:1"
         id="path842"
         sodipodi:type="arc"
         sodipodi:cx="6.2027841"
         sodipodi:cy="293.88803"
         sodipodi:rx="1.1766427"
         sodipodi:ry="1.1766427"
         sodipodi:start="2.0049819"
         sodipodi:end="2.0046503"
         sodipodi:open="true"
         d="m 5.7078038,294.9555 a 1.1766427,1.1766427 0 0 1 -0.5725262,-1.56236 1.1766427,1.1766427 0 0 1 1.5623097,-0.57266 1.1766427,1.1766427 0 0 1 0.5727853,1.56227 1.1766427,1.1766427 0 0 1 -1.5622148,0.57291" />
      <path
         d="m 7.2381545,295.40954 a 1.1766427,1.1766427 0 0 1 -0.5725262,-1.56236 1.1766427,1.1766427 0 0 1 1.5623097,-0.57266 1.1766427,1.1766427 0 0 1 0.5727853,1.56227 1.1766427,1.1766427 0 0 1 -1.5622148,0.57291"
         sodipodi:open="true"
         sodipodi:end="2.0046503"
         sodipodi:start="2.0049819"
         sodipodi:ry="1.1766427"
         sodipodi:rx="1.1766427"
         sodipodi:cy="294.34207"
         sodipodi:cx="7.7331347"
         sodipodi:type="arc"
         id="path836"
         style="fill:#ffffff;fill-opacity:1;stroke:#000000;stroke-width:0.30000001;stroke-linecap:round;stroke-linejoin:round;stroke-miterlimit:4;stroke-dasharray:none;stroke-opacity:1" />
      <path
         d="m 11.30566,293.14019 c -0.03293,0.83152 0.965311,1.6125 0.705586,2.99032 -1.376503,0.25997 -2.1567542,-0.73922 -2.987498,-0.70626 -0.8307443,0.033 -1.6412878,0.49638 -2.6737479,0.48086 -1.03246,0.0155 -1.8430041,-0.44791 -2.6737479,-0.48086 -0.8307439,-0.0329 -1.6109949,0.96623 -2.98749893,0.70626 -0.25972515,-1.37782 0.73851813,-2.1588 0.70558693,-2.99032 -0.032919,-0.83154 -0.49591265,-1.64284 -0.48040664,-2.70633 -0.015506,-1.06349 0.44748814,-1.87479 0.48040664,-2.70633 0.032931,-0.83152 -0.96531208,-1.6125 -0.70558693,-2.99032 1.37650403,-0.25997 2.15675503,0.73921 2.98749893,0.70626 0.8307438,-0.0329 1.6412879,-0.49638 2.6737479,-0.48086 1.0324601,-0.0155 1.8430036,0.44791 2.6737479,0.48086 0.8307438,0.033 1.610995,-0.96623 2.987498,-0.70626 0.259725,1.37782 -0.738518,2.1588 -0.705586,2.99032 0.03292,0.83154 0.495912,1.64284 0.480406,2.70633 0.01551,1.06349 -0.447488,1.87479 -0.480406,2.70633 z m -9.0893552,-7.04565 h 8.2823792 c 0.02312,0 0.04173,0.0186 0.04173,0.0417 v 8.55901 c 0,0.0231 -0.01861,0.0417 -0.04173,0.0417 H 2.2163048 c -0.023116,0 -0.041726,-0.0186 -0.041726,-0.0417 v -8.55901 c 0,-0.0231 0.01861,-0.0417 0.041726,-0.0417 z"
         style="fill:#ffffff;fill-rule:evenodd;stroke:#000000;stroke-width:0.30000001;stroke-linecap:butt;stroke-linejoin:miter;stroke-miterlimit:4;stroke-dasharray:none;stroke-opacity:1"
         id="path825"
         inkscape:connector-curvature="0" />
    </g>
  </g>
</svg>
