<?xml version="1.0" encoding="UTF-8" standalone="no"?>
<!-- Created with Inkscape (http://www.inkscape.org/) -->

<svg
   xmlns:dc="http://purl.org/dc/elements/1.1/"
   xmlns:cc="http://creativecommons.org/ns#"
   xmlns:rdf="http://www.w3.org/1999/02/22-rdf-syntax-ns#"
   xmlns:svg="http://www.w3.org/2000/svg"
   xmlns="http://www.w3.org/2000/svg"
   xmlns:sodipodi="http://sodipodi.sourceforge.net/DTD/sodipodi-0.dtd"
   xmlns:inkscape="http://www.inkscape.org/namespaces/inkscape"
   width="48"
   height="48"
   viewBox="0 0 12.7 12.7"
   version="1.1"
   id="svg8"
   inkscape:version="0.92.3 (2405546, 2018-03-11)"
   sodipodi:docname="qimgwatch_gitlab.svg">
  <defs
     id="defs2" />
  <sodipodi:namedview
     id="base"
     pagecolor="#ffffff"
     bordercolor="#666666"
     borderopacity="1.0"
     inkscape:pageopacity="0.0"
     inkscape:pageshadow="2"
     inkscape:zoom="15.13307"
     inkscape:cx="27.824803"
     inkscape:cy="23.936932"
     inkscape:document-units="mm"
     inkscape:current-layer="layer1"
     showgrid="false"
     units="px"
     inkscape:window-width="2560"
     inkscape:window-height="1391"
     inkscape:window-x="1680"
     inkscape:window-y="0"
     inkscape:window-maximized="1" />
  <metadata
     id="metadata5">
    <rdf:RDF>
      <cc:Work
         rdf:about="">
        <dc:format>image/svg+xml</dc:format>
        <dc:type
           rdf:resource="http://purl.org/dc/dcmitype/StillImage" />
        <dc:title></dc:title>
      </cc:Work>
    </rdf:RDF>
  </metadata>
  <g
     inkscape:label="Layer 1"
     inkscape:groupmode="layer"
     id="layer1"
     transform="translate(0,-284.3)">
    <path
       id="path821"
       style="fill:#ffffff;fill-rule:evenodd;stroke:#000000;stroke-width:0.27142346;stroke-linecap:butt;stroke-linejoin:miter;stroke-miterlimit:4;stroke-dasharray:none;stroke-opacity:1"
       d="m 4.8298515,289.37038 -1.2076455,0.62308 -0.2770259,-0.69769 -0.2770223,-0.69768 1.306131,-0.37505 0.2277795,0.57367 z"
       inkscape:connector-curvature="0"
       sodipodi:nodetypes="ccccccc" />
    <path
       style="fill:#ffffff;fill-opacity:1;stroke:#000000;stroke-width:0.27142346;stroke-linecap:round;stroke-linejoin:round;stroke-miterlimit:4;stroke-dasharray:none;stroke-opacity:1"
       d="m 4.1732503,288.28888 0.7876721,1.6842 c 0.00915,0.0195 0.031026,0.0304 0.051414,0.0222 l 4.8315848,-1.91842 c 0.020465,-0.008 0.030236,-0.031 0.022184,-0.0514 l -0.2617461,-0.65921 0.1685096,-0.0806 -0.8272392,-1.81909 c -0.00908,-0.02 -0.030814,-0.0299 -0.051411,-0.0223 l -5.7637082,2.13606 -1.5e-6,-2e-5 c -0.021917,-9e-5 -0.042612,0.0433 -0.022185,0.0514 l 2.5139546,1.32312 4.1505908,-1.6692"
       id="rect815"
       inkscape:connector-curvature="0"
       sodipodi:nodetypes="csscsccssssscc" />
    <path
       style="fill:none;fill-rule:evenodd;stroke:#000000;stroke-width:0.27142346;stroke-linecap:butt;stroke-linejoin:miter;stroke-miterlimit:4;stroke-dasharray:none;stroke-opacity:1"
       d="m 7.1915527,289.66302 0.6369645,1.41042 h 3.0028338"
       id="path825"
       inkscape:connector-curvature="0" />
    <rect
       style="fill:#ffffff;fill-opacity:1;stroke:#000000;stroke-width:0.27142346;stroke-linecap:round;stroke-linejoin:round;stroke-miterlimit:4;stroke-dasharray:none;stroke-opacity:1"
       id="rect827"
       width="1.0767735"
       height="3.9279487"
       x="10.740355"
       y="288.91992"
       rx="0.039595149" />
    <path
       inkscape:connector-curvature="0"
       id="path829"
       d="m 7.767854,289.39003 0.5156381,1.10712 h 2.5478589"
       style="fill:none;fill-rule:evenodd;stroke:#000000;stroke-width:0.27142346;stroke-linecap:butt;stroke-linejoin:miter;stroke-miterlimit:4;stroke-dasharray:none;stroke-opacity:1"
       sodipodi:nodetypes="ccc" />
    <rect
       rx="0.029367691"
       y="100.54296"
       x="270.6217"
       height="2.7701993"
       width="0.79864222"
       id="rect831"
       style="fill:#ffffff;fill-opacity:1;stroke:#000000;stroke-width:0.27142346;stroke-linecap:round;stroke-linejoin:round;stroke-miterlimit:4;stroke-dasharray:none;stroke-opacity:1"
       transform="rotate(67.913548)" />
    <path
       id="path839"
       style="fill:none;fill-rule:evenodd;stroke:#000000;stroke-width:0.27142346;stroke-linecap:butt;stroke-linejoin:miter;stroke-miterlimit:4;stroke-dasharray:none;stroke-opacity:1"
       d="m 4.8560157,292.16942 c 1.7226274,0 1.8922801,0.18269 3.6540582,1.68348 -1.7617781,1.50078 -1.9314308,1.68348 -3.6540582,1.68348 m 0,0 c -1.7226278,0 -1.8922803,-0.1827 -3.6540583,-1.68348 1.761778,-1.50079 1.9314305,-1.68348 3.6540583,-1.68348"
       inkscape:connector-curvature="0"
       sodipodi:nodetypes="cccccc" />
    <path
       style="fill:#ffffff;fill-opacity:1;stroke:#000000;stroke-width:0.27142346;stroke-linecap:round;stroke-linejoin:round;stroke-miterlimit:4;stroke-dasharray:none;stroke-opacity:1"
       id="path842"
       sodipodi:type="arc"
       sodipodi:cx="4.8144612"
       sodipodi:cy="293.67285"
       sodipodi:rx="1.4820983"
       sodipodi:ry="1.4820983"
       sodipodi:start="2.0049819"
       sodipodi:end="2.0046503"
       sodipodi:open="true"
       d="m 4.1909844,295.01743 a 1.4820983,1.4820983 0 0 1 -0.7211537,-1.96794 1.4820983,1.4820983 0 0 1 1.9678844,-0.72132 1.4820983,1.4820983 0 0 1 0.72148,1.96782 1.4820983,1.4820983 0 0 1 -1.9677648,0.72165" />
    <path
       d="m 4.5686386,294.20299 a 0.58435744,0.58435744 0 0 1 -0.2843344,-0.77592 0.58435744,0.58435744 0 0 1 0.7758918,-0.2844 0.58435744,0.58435744 0 0 1 0.284463,0.77587 0.58435744,0.58435744 0 0 1 -0.7758446,0.28453"
       sodipodi:open="true"
       sodipodi:end="2.0046503"
       sodipodi:start="2.0049819"
       sodipodi:ry="0.58435744"
       sodipodi:rx="0.58435744"
       sodipodi:cy="293.67285"
       sodipodi:cx="4.8144612"
       sodipodi:type="arc"
       id="path844"
       style="fill:#000000;fill-opacity:1;stroke:#000000;stroke-width:0.27142346;stroke-linecap:round;stroke-linejoin:round;stroke-miterlimit:4;stroke-dasharray:none;stroke-opacity:1" />
  </g>
</svg>
