<?xml version="1.0" encoding="UTF-8" standalone="no"?>
<!-- Created with Inkscape (http://www.inkscape.org/) -->

<svg
   xmlns:dc="http://purl.org/dc/elements/1.1/"
   xmlns:cc="http://creativecommons.org/ns#"
   xmlns:rdf="http://www.w3.org/1999/02/22-rdf-syntax-ns#"
   xmlns:svg="http://www.w3.org/2000/svg"
   xmlns="http://www.w3.org/2000/svg"
   xmlns:sodipodi="http://sodipodi.sourceforge.net/DTD/sodipodi-0.dtd"
   xmlns:inkscape="http://www.inkscape.org/namespaces/inkscape"
   width="48"
   height="48"
   viewBox="0 0 12.7 12.7"
   version="1.1"
   id="svg8"
   inkscape:version="0.92.3 (2405546, 2018-03-11)"
   sodipodi:docname="qimgwatch.svg">
  <defs
     id="defs2" />
  <sodipodi:namedview
     id="base"
     pagecolor="#ffffff"
     bordercolor="#666666"
     borderopacity="1.0"
     inkscape:pageopacity="0.0"
     inkscape:pageshadow="2"
     inkscape:zoom="15.13307"
     inkscape:cx="30.666262"
     inkscape:cy="38.276388"
     inkscape:document-units="mm"
     inkscape:current-layer="layer1"
     showgrid="false"
     units="px"
     inkscape:window-width="2560"
     inkscape:window-height="1391"
     inkscape:window-x="1680"
     inkscape:window-y="0"
     inkscape:window-maximized="1" />
  <metadata
     id="metadata5">
    <rdf:RDF>
      <cc:Work
         rdf:about="">
        <dc:format>image/svg+xml</dc:format>
        <dc:type
           rdf:resource="http://purl.org/dc/dcmitype/StillImage" />
        <dc:title></dc:title>
      </cc:Work>
    </rdf:RDF>
  </metadata>
  <g
     inkscape:label="Layer 1"
     inkscape:groupmode="layer"
     id="layer1"
     transform="translate(0,-284.3)">
    <path
       id="path821"
       style="fill:#ffffff;fill-rule:evenodd;stroke:#000000;stroke-width:0.30000001;stroke-linecap:butt;stroke-linejoin:miter;stroke-miterlimit:4;stroke-dasharray:none;stroke-opacity:1"
       d="m 4.5344932,289.4099 -1.3347913,0.68868 -0.3061923,-0.77115 -0.3061883,-0.77113 1.4436457,-0.41454 0.251761,0.63407 z"
       inkscape:connector-curvature="0"
       sodipodi:nodetypes="ccccccc" />
    <path
       style="fill:#ffffff;fill-opacity:1;stroke:#000000;stroke-width:0.30000001;stroke-linecap:round;stroke-linejoin:round;stroke-miterlimit:4;stroke-dasharray:none;stroke-opacity:1"
       d="m 3.8087624,288.21453 0.8706013,1.86152 c 0.010114,0.0216 0.034293,0.0336 0.056827,0.0246 l 5.3402733,-2.1204 c 0.02262,-0.009 0.03342,-0.0343 0.02452,-0.0568 l -0.2893038,-0.72862 0.186251,-0.0891 -0.9143343,-2.01062 c -0.010033,-0.0221 -0.034058,-0.033 -0.056824,-0.0246 l -6.3705345,2.36095 -1.6e-6,-2e-5 c -0.024225,-1e-4 -0.047098,0.0478 -0.024521,0.0568 l 2.7786338,1.46243 4.5875816,-1.84494"
       id="rect815"
       inkscape:connector-curvature="0"
       sodipodi:nodetypes="csscsccssssscc" />
    <path
       style="fill:none;fill-rule:evenodd;stroke:#000000;stroke-width:0.3;stroke-linecap:butt;stroke-linejoin:miter;stroke-opacity:1;stroke-miterlimit:4;stroke-dasharray:none"
       d="m 7.1448437,289.73335 0.7040267,1.55892 h 3.3189846"
       id="path825"
       inkscape:connector-curvature="0" />
    <rect
       style="fill:#ffffff;fill-opacity:1;stroke:#000000;stroke-width:0.3;stroke-linecap:round;stroke-linejoin:round;stroke-miterlimit:4;stroke-dasharray:none;stroke-opacity:1"
       id="rect827"
       width="1.1901406"
       height="4.3414989"
       x="11.067278"
       y="288.91202"
       rx="0.043763883" />
    <path
       inkscape:connector-curvature="0"
       id="path829"
       d="m 7.7818203,289.43162 0.5699265,1.22368 h 2.8161082"
       style="fill:none;fill-rule:evenodd;stroke:#000000;stroke-width:0.3;stroke-linecap:butt;stroke-linejoin:miter;stroke-opacity:1;stroke-miterlimit:4;stroke-dasharray:none"
       sodipodi:nodetypes="ccc" />
    <rect
       rx="0.032459639"
       y="100.43286"
       x="270.6178"
       height="3.061857"
       width="0.88272643"
       id="rect831"
       style="fill:#ffffff;fill-opacity:1;stroke:#000000;stroke-width:0.3;stroke-linecap:round;stroke-linejoin:round;stroke-miterlimit:4;stroke-dasharray:none;stroke-opacity:1"
       transform="rotate(67.913548)" />
    <path
       id="path839"
       style="fill:none;fill-rule:evenodd;stroke:#000000;stroke-width:0.3;stroke-linecap:butt;stroke-linejoin:miter;stroke-opacity:1;stroke-miterlimit:4;stroke-dasharray:none"
       d="m 4.563412,292.50363 c 1.9039925,0 2.0915069,0.20193 4.0387721,1.86073 -1.9472652,1.65879 -2.1347796,1.86072 -4.0387721,1.86072 m 0,0 c -1.9039929,0 -2.0915071,-0.20193 -4.03877217,-1.86072 1.94726507,-1.6588 2.13477927,-1.86073 4.03877217,-1.86073"
       inkscape:connector-curvature="0"
       sodipodi:nodetypes="cccccc" />
    <path
       style="fill:#ffffff;fill-opacity:1;stroke:#000000;stroke-width:0.3;stroke-linecap:round;stroke-linejoin:round;stroke-miterlimit:4;stroke-dasharray:none;stroke-opacity:1"
       id="path842"
       sodipodi:type="arc"
       sodipodi:cx="4.5174828"
       sodipodi:cy="294.16534"
       sodipodi:rx="1.6381396"
       sodipodi:ry="1.6381396"
       sodipodi:start="2.0049819"
       sodipodi:end="2.0046503"
       sodipodi:open="true"
       d="m 3.8283638,295.65149 a 1.6381396,1.6381396 0 0 1 -0.7970796,-2.17514 1.6381396,1.6381396 0 0 1 2.1750711,-0.79726 1.6381396,1.6381396 0 0 1 0.7974403,2.175 1.6381396,1.6381396 0 0 1 -2.1749389,0.79762" />
    <path
       d="m 4.2457789,294.7513 a 0.64588094,0.64588094 0 0 1 -0.3142702,-0.85761 0.64588094,0.64588094 0 0 1 0.8575807,-0.31434 0.64588094,0.64588094 0 0 1 0.3144125,0.85755 0.64588094,0.64588094 0 0 1 -0.8575286,0.31449"
       sodipodi:open="true"
       sodipodi:end="2.0046503"
       sodipodi:start="2.0049819"
       sodipodi:ry="0.64588094"
       sodipodi:rx="0.64588094"
       sodipodi:cy="294.16534"
       sodipodi:cx="4.5174828"
       sodipodi:type="arc"
       id="path844"
       style="fill:#000000;fill-opacity:1;stroke:#000000;stroke-width:0.3;stroke-linecap:round;stroke-linejoin:round;stroke-miterlimit:4;stroke-dasharray:none;stroke-opacity:1" />
  </g>
</svg>
